# Blender v3.0.1 OBJ File: 'CornellBox.blend'
# www.blender.org
mtllib CornellBox.mtl
o CornellBox
v -0.240000 1.980000 -0.220000
v 0.230000 1.980000 -0.220000
v -0.240000 1.980000 0.160000
v 0.230000 1.980000 0.160000
v -0.046075 0.600000 0.573007
v -0.046075 -0.000000 0.573007
v 0.533009 0.600000 0.746079
v 0.533009 0.000000 0.746079
v 0.124253 0.600000 0.003105
v 0.124253 0.000000 0.003105
v 0.703337 0.600000 0.176177
v 0.703337 0.000000 0.176177
v -1.000000 0.000000 1.000000
v -1.000000 0.000000 -1.000000
v -1.000000 2.000000 -1.000000
v -0.999549 2.000000 1.000000
v -1.000000 0.000000 1.000000
v 1.000000 0.000000 1.000000
v 1.000000 0.000000 -1.000000
v -1.000000 0.000000 -1.000000
v -1.000000 2.000000 1.000000
v -1.000000 2.000000 -1.000000
v 1.000000 2.000000 -1.000000
v 1.000000 2.000000 1.000000
v -1.000000 0.000000 -1.000000
v 1.000000 0.000000 -1.000000
v 1.000000 2.000000 -1.000000
v -1.000000 2.000000 -1.000000
v 1.000000 0.000000 -1.000000
v 1.000000 0.000000 1.000000
v 1.000000 2.000000 1.000000
v 1.000000 2.000000 -1.000000
v -0.720444 1.200000 -0.473883
v -0.720444 0.000000 -0.473883
v -0.523986 1.200000 0.090649
v -0.523986 0.000000 0.090649
v -0.146892 1.200000 -0.673479
v -0.146892 0.000000 -0.673479
v 0.049566 1.200000 -0.108947
v 0.049566 0.000000 -0.108947
vt 0.000000 0.000000
vt 1.000000 0.000000
vt 1.000000 1.000000
vt 0.000000 1.000000
vt 0.375000 0.000000
vt 0.625000 0.000000
vt 0.625000 0.250000
vt 0.375000 0.250000
vt 0.625000 0.500000
vt 0.375000 0.500000
vt 0.625000 0.750000
vt 0.375000 0.750000
vt 0.625000 1.000000
vt 0.375000 1.000000
vt 0.125000 0.500000
vt 0.125000 0.750000
vt 0.875000 0.500000
vt 0.875000 0.750000
vt 0.000000 0.000000
vt 0.000000 0.000000
vt 0.000000 0.000000
vt 0.000000 0.000000
vt 0.000000 0.000000
vt 0.000000 0.000000
vt 0.000000 0.000000
vt 0.000000 0.000000
vt 0.000000 0.000000
vt 0.000000 0.000000
vt 0.000000 0.000000
vt 0.000000 0.000000
vt 0.000000 0.000000
vt 0.000000 0.000000
vt 0.000000 0.000000
vt 0.000000 0.000000
vt 0.000000 0.000000
vt 0.000000 0.000000
vt 0.000000 0.000000
vt 0.000000 0.000000
vt 0.375000 0.000000
vt 0.625000 0.000000
vt 0.625000 0.250000
vt 0.375000 0.250000
vt 0.625000 0.500000
vt 0.375000 0.500000
vt 0.625000 0.750000
vt 0.375000 0.750000
vt 0.625000 1.000000
vt 0.375000 1.000000
vt 0.125000 0.500000
vt 0.125000 0.750000
vt 0.875000 0.500000
vt 0.875000 0.750000
vn 0.0000 -1.0000 0.0000
vn -0.2864 0.0000 0.9581
vn 0.9581 0.0000 0.2864
vn 0.2864 0.0000 -0.9581
vn -0.9581 -0.0000 -0.2864
vn 0.0000 1.0000 -0.0000
vn 1.0000 -0.0001 -0.0001
vn 0.0000 0.0000 1.0000
vn -1.0000 0.0000 0.0000
vn -0.9444 -0.0000 0.3287
vn 0.3287 0.0000 0.9444
vn 0.9444 -0.0000 -0.3287
vn -0.3287 -0.0000 -0.9444
usemtl light
s off
f 1/1/1 2/2/1 4/3/1 3/4/1
usemtl shortBox
f 5/5/2 6/6/2 8/7/2 7/8/2
f 7/8/3 8/7/3 12/9/3 11/10/3
f 11/10/4 12/9/4 10/11/4 9/12/4
f 9/12/5 10/11/5 6/13/5 5/14/5
f 7/15/6 11/10/6 9/12/6 5/16/6
f 12/9/1 8/17/1 6/18/1 10/11/1
usemtl leftWall
f 13/19/7 14/20/7 15/21/7 16/22/7
usemtl floor
f 17/23/6 18/24/6 19/25/6 20/26/6
usemtl ceiling
f 21/27/1 22/28/1 23/29/1 24/30/1
usemtl backWall
f 25/31/8 26/32/8 27/33/8 28/34/8
usemtl rightWall
f 29/35/9 30/36/9 31/37/9 32/38/9
usemtl tallBox
f 33/39/10 34/40/10 36/41/10 35/42/10
f 35/42/11 36/41/11 40/43/11 39/44/11
f 39/44/12 40/43/12 38/45/12 37/46/12
f 37/46/13 38/45/13 34/47/13 33/48/13
f 35/49/6 39/44/6 37/46/6 33/50/6
f 40/43/1 36/51/1 34/52/1 38/45/1
